<svg xmlns="http://www.w3.org/2000/svg" xmlns:xlink="http://www.w3.org/1999/xlink" width="500" zoomAndPan="magnify" viewBox="0 0 375 374.999991" height="500" preserveAspectRatio="xMidYMid meet" version="1.0"><defs><clipPath id="6d28ae8346"><path d="M 307 261 L 345.28125 261 L 345.28125 300 L 307 300 Z M 307 261 " clip-rule="nonzero"/></clipPath><clipPath id="1b5dfc773c"><path d="M 29.53125 261 L 67 261 L 67 300 L 29.53125 300 Z M 29.53125 261 " clip-rule="nonzero"/></clipPath></defs><g clip-path="url(#6d28ae8346)"><path fill="#f9ab9e" d="M 345.273438 280.652344 C 345.273438 290.960938 336.921875 299.316406 326.621094 299.316406 C 316.316406 299.316406 307.960938 290.960938 307.960938 280.652344 C 307.960938 270.34375 316.316406 261.984375 326.621094 261.984375 C 336.921875 261.984375 345.273438 270.34375 345.273438 280.652344 " fill-opacity="1" fill-rule="nonzero"/></g><g clip-path="url(#1b5dfc773c)"><path fill="#f9ab9e" d="M 66.847656 280.652344 C 66.847656 290.960938 58.496094 299.316406 48.191406 299.316406 C 37.890625 299.316406 29.539062 290.960938 29.539062 280.652344 C 29.539062 270.34375 37.890625 261.984375 48.191406 261.984375 C 58.496094 261.984375 66.847656 270.34375 66.847656 280.652344 " fill-opacity="1" fill-rule="nonzero"/></g><path fill="#d3d2d2" d="M 186.769531 79.765625 C 211.859375 79.765625 235.574219 86.679688 256.097656 98.667969 C 258.957031 90.828125 260.519531 82.355469 260.519531 73.527344 C 260.519531 33.042969 227.722656 0.222656 187.257812 0.222656 C 146.800781 0.222656 113.996094 33.042969 113.996094 73.527344 C 113.996094 82.1875 115.507812 90.488281 118.261719 98.195312 C 138.597656 86.5 162.015625 79.765625 186.769531 79.765625 " fill-opacity="1" fill-rule="nonzero"/><path fill="#f9ab9e" d="M 337.3125 224.640625 C 337.3125 307.5625 270.125 374.777344 187.257812 374.777344 C 104.390625 374.777344 37.210938 307.5625 37.210938 224.640625 C 37.210938 141.71875 104.390625 74.5 187.257812 74.5 C 270.125 74.5 337.3125 141.71875 337.3125 224.640625 " fill-opacity="1" fill-rule="nonzero"/><path fill="#ef2e41" d="M 114.910156 92.261719 C 123.675781 82.53125 135.054688 75.683594 147.21875 70.941406 C 159.425781 66.230469 172.613281 63.945312 185.753906 63.925781 C 198.886719 63.921875 212.082031 66.207031 224.285156 70.921875 C 236.457031 75.648438 247.832031 82.507812 256.589844 92.261719 C 250.082031 91.398438 243.996094 90.289062 237.964844 89.40625 C 231.949219 88.507812 226.078125 87.6875 220.25 87.054688 C 208.605469 85.789062 197.199219 85.089844 185.753906 85.078125 C 174.296875 85.058594 162.890625 85.769531 151.242188 87.027344 C 145.410156 87.65625 139.53125 88.476562 133.527344 89.390625 C 127.496094 90.269531 121.410156 91.378906 114.910156 92.261719 " fill-opacity="1" fill-rule="nonzero"/><path fill="#d3d2d2" d="M 338.378906 223.949219 C 338.378906 140.917969 269.808594 74.21875 186.699219 74.128906 L 186.632812 74.128906 L 186.632812 187.335938 C 192.777344 202.554688 210.304688 255.1875 332.527344 263.65625 C 335.871094 251.183594 338.378906 237.46875 338.378906 223.949219 " fill-opacity="1" fill-rule="nonzero"/><path fill="#d3d2d2" d="M 36.140625 224.5625 C 36.140625 141.53125 103.480469 74.21875 186.589844 74.128906 L 186.65625 74.128906 L 186.65625 187.335938 C 180.515625 202.554688 164.339844 255.15625 42.117188 263.621094 C 38.769531 251.15625 36.140625 238.082031 36.140625 224.5625 " fill-opacity="1" fill-rule="nonzero"/><path fill="#4b1615" d="M 233.179688 285.605469 C 233.179688 283.511719 234.019531 281.636719 235.390625 280.261719 C 236.765625 278.890625 238.644531 278.050781 240.734375 278.046875 C 242.824219 278.050781 244.699219 278.890625 246.074219 280.257812 C 247.441406 281.636719 248.285156 283.511719 248.285156 285.605469 C 248.285156 286.855469 249.300781 287.871094 250.550781 287.871094 C 251.800781 287.871094 252.816406 286.855469 252.816406 285.605469 C 252.816406 278.925781 247.410156 273.515625 240.734375 273.515625 C 234.058594 273.515625 228.648438 278.925781 228.648438 285.605469 C 228.648438 286.855469 229.664062 287.871094 230.914062 287.871094 C 232.164062 287.871094 233.179688 286.855469 233.179688 285.605469 " fill-opacity="1" fill-rule="nonzero"/><path fill="#4b1615" d="M 126.230469 285.605469 C 126.234375 283.511719 127.074219 281.636719 128.445312 280.261719 C 129.816406 278.890625 131.691406 278.050781 133.789062 278.046875 C 135.878906 278.050781 137.75 278.890625 139.125 280.261719 C 140.496094 281.636719 141.335938 283.511719 141.339844 285.605469 C 141.339844 286.855469 142.351562 287.871094 143.605469 287.871094 C 144.859375 287.871094 145.875 286.855469 145.875 285.605469 C 145.871094 278.925781 140.457031 273.515625 133.789062 273.515625 C 127.113281 273.515625 121.699219 278.925781 121.699219 285.605469 C 121.699219 286.855469 122.710938 287.871094 123.960938 287.871094 C 125.21875 287.871094 126.230469 286.855469 126.230469 285.605469 " fill-opacity="1" fill-rule="nonzero"/><path fill="#c38562" d="M 195.265625 312.308594 L 177.152344 311.738281 L 186.324219 283.132812 L 189.199219 284.054688 L 181.253906 308.84375 L 195.363281 309.289062 L 195.265625 312.308594 " fill-opacity="1" fill-rule="nonzero"/><path fill="#f57f91" d="M 263.101562 316.589844 C 263.101562 324.515625 252.847656 330.945312 240.191406 330.945312 C 227.539062 330.945312 217.28125 324.515625 217.28125 316.589844 C 217.28125 308.65625 227.539062 302.230469 240.191406 302.230469 C 252.847656 302.230469 263.101562 308.65625 263.101562 316.589844 " fill-opacity="1" fill-rule="nonzero"/><path fill="#f57f91" d="M 157.238281 316.589844 C 157.238281 324.515625 146.984375 330.945312 134.328125 330.945312 C 121.675781 330.945312 111.417969 324.515625 111.417969 316.589844 C 111.417969 308.65625 121.675781 302.230469 134.328125 302.230469 C 146.984375 302.230469 157.238281 308.65625 157.238281 316.589844 " fill-opacity="1" fill-rule="nonzero"/><path fill="#4b1615" d="M 159.109375 338.117188 C 159.207031 338.277344 161.28125 341.910156 165.824219 345.5625 C 168.097656 347.386719 170.988281 349.214844 174.550781 350.585938 C 178.105469 351.957031 182.320312 352.863281 187.195312 352.863281 C 192.1875 352.863281 196.476562 351.960938 200.070312 350.589844 C 205.464844 348.53125 209.28125 345.445312 211.75 342.867188 C 214.222656 340.285156 215.363281 338.207031 215.433594 338.074219 C 216.027344 336.972656 215.621094 335.597656 214.519531 335 C 213.421875 334.40625 212.046875 334.8125 211.449219 335.914062 L 212.273438 336.363281 L 211.453125 335.90625 L 211.449219 335.914062 L 212.273438 336.363281 L 211.453125 335.90625 C 211.441406 335.9375 209.675781 339.09375 205.789062 342.179688 C 203.847656 343.722656 201.375 345.257812 198.308594 346.40625 C 195.242188 347.554688 191.574219 348.328125 187.195312 348.328125 C 182.878906 348.328125 179.238281 347.53125 176.175781 346.355469 C 171.582031 344.585938 168.273438 341.925781 166.117188 339.714844 C 165.039062 338.609375 164.253906 337.617188 163.746094 336.917969 C 163.496094 336.566406 163.308594 336.289062 163.191406 336.109375 L 163.070312 335.910156 L 163.046875 335.871094 L 162.859375 335.976562 L 163.046875 335.871094 L 162.859375 335.976562 L 163.046875 335.871094 C 162.429688 334.78125 161.046875 334.40625 159.957031 335.019531 C 158.867188 335.644531 158.488281 337.027344 159.109375 338.117188 " fill-opacity="1" fill-rule="nonzero"/><path fill="#ef2e41" d="M 284.125 285.347656 L 281.859375 285.347656 C 281.859375 296.734375 277.253906 307.015625 269.800781 314.476562 C 262.347656 321.933594 252.070312 326.539062 240.695312 326.539062 C 229.320312 326.539062 219.046875 321.933594 211.589844 314.476562 C 204.132812 307.015625 199.53125 296.734375 199.53125 285.347656 C 199.53125 273.972656 204.132812 263.6875 211.589844 256.230469 C 219.046875 248.769531 229.320312 244.160156 240.695312 244.160156 C 252.070312 244.160156 262.347656 248.769531 269.800781 256.230469 C 277.253906 263.6875 281.859375 273.972656 281.859375 285.347656 L 286.390625 285.347656 C 286.386719 260.101562 265.929688 239.628906 240.695312 239.625 C 215.457031 239.628906 195 260.101562 195 285.347656 C 195 310.605469 215.457031 331.074219 240.695312 331.074219 C 265.929688 331.074219 286.386719 310.605469 286.390625 285.347656 L 284.125 285.347656 " fill-opacity="1" fill-rule="nonzero"/><path fill="#ef2e41" d="M 177.253906 285.347656 L 174.988281 285.347656 C 174.984375 296.734375 170.382812 307.015625 162.933594 314.476562 C 155.472656 321.933594 145.199219 326.539062 133.824219 326.539062 C 122.449219 326.539062 112.171875 321.933594 104.714844 314.476562 C 97.261719 307.015625 92.664062 296.734375 92.664062 285.347656 C 92.664062 273.972656 97.261719 263.6875 104.714844 256.230469 C 112.171875 248.769531 122.449219 244.160156 133.824219 244.160156 C 145.199219 244.160156 155.472656 248.769531 162.933594 256.230469 C 170.382812 263.6875 174.984375 273.972656 174.988281 285.347656 L 179.519531 285.347656 C 179.515625 260.101562 159.0625 239.628906 133.824219 239.625 C 108.585938 239.628906 88.128906 260.101562 88.128906 285.347656 C 88.128906 310.605469 108.585938 331.074219 133.824219 331.074219 C 159.0625 331.074219 179.515625 310.605469 179.519531 285.347656 L 177.253906 285.347656 " fill-opacity="1" fill-rule="nonzero"/><path fill="#ef2e41" d="M 176.808594 281.550781 L 197.515625 281.550781 C 198.757812 281.550781 199.757812 280.542969 199.757812 279.304688 C 199.757812 278.0625 198.757812 277.054688 197.515625 277.054688 L 176.808594 277.054688 C 175.570312 277.054688 174.5625 278.0625 174.5625 279.304688 C 174.5625 280.542969 175.570312 281.550781 176.808594 281.550781 " fill-opacity="1" fill-rule="nonzero"/><path fill="#ef2e41" d="M 285.382812 282.175781 L 332.589844 265.171875 C 333.761719 264.753906 334.363281 263.46875 333.945312 262.296875 C 333.523438 261.125 332.234375 260.523438 331.070312 260.941406 L 283.863281 277.949219 C 282.695312 278.371094 282.089844 279.65625 282.511719 280.824219 C 282.929688 281.992188 284.21875 282.597656 285.382812 282.175781 " fill-opacity="1" fill-rule="nonzero"/><path fill="#ef2e41" d="M 90.148438 277.949219 L 42.941406 260.941406 C 41.773438 260.523438 40.488281 261.125 40.066406 262.296875 C 39.648438 263.46875 40.253906 264.753906 41.417969 265.171875 L 88.625 282.175781 C 89.792969 282.597656 91.078125 281.992188 91.5 280.824219 C 91.917969 279.65625 91.3125 278.371094 90.148438 277.949219 " fill-opacity="1" fill-rule="nonzero"/><path fill="#ef2e41" d="M 333.027344 297.085938 C 333.027344 300.46875 330.277344 303.214844 326.898438 303.214844 C 323.515625 303.214844 320.773438 300.46875 320.773438 297.085938 C 320.773438 293.699219 323.515625 290.960938 326.898438 290.960938 C 330.277344 290.960938 333.027344 293.699219 333.027344 297.085938 " fill-opacity="1" fill-rule="nonzero"/><path fill="#ef2e41" d="M 51.8125 297.085938 C 51.8125 300.46875 49.070312 303.214844 45.691406 303.214844 C 42.304688 303.214844 39.5625 300.46875 39.5625 297.085938 C 39.5625 293.699219 42.304688 290.960938 45.691406 290.960938 C 49.070312 290.960938 51.8125 293.699219 51.8125 297.085938 " fill-opacity="1" fill-rule="nonzero"/></svg>